<svg width="55" height="17" viewBox="0 0 55 17" fill="none" xmlns="http://www.w3.org/2000/svg">
<path d="M5.18359 0.0153809H7.93171V16.0461H5.18359V9.01548H2.82478V16.0461H0.0766602V0.0153809H2.82478V6.63377H5.18359V0.0153809Z" fill="#333231"/>
<path d="M10.6958 0.0153809H15.0011L17.0851 16.0461H14.337L13.7874 11.7407H11.8408L11.3141 16.0461H8.56596L10.6958 0.0153809ZM12.1385 9.35899H13.4897L12.9171 4.61848H12.7339L12.1385 9.35899Z" fill="#333231"/>
<path d="M17.7221 0.0153809H20.4702V13.6644H23.4931V16.0461H17.7221V0.0153809Z" fill="#333231"/>
<path d="M24.163 0.0153809H26.9111V13.6644H29.934V16.0461H24.163V0.0153809Z" fill="#333231"/>
<path d="M42.6135 0.0153809H45.3616V16.0461H42.6135V0.0153809Z" fill="#333231"/>
<path d="M48.1335 0.0153809H52.4389L54.5229 16.0461H51.7748L51.2252 11.7407H49.2786L48.7519 16.0461H46.0037L48.1335 0.0153809ZM49.5763 9.35899H50.9275L50.3549 4.61848H50.1717L49.5763 9.35899Z" fill="#333231"/>
<path d="M37.2757 5.07312C37.3053 5.07312 37.3349 5.07312 37.3654 5.07311C37.4627 5.07313 37.5601 5.07335 37.6575 5.07356C37.7252 5.07361 37.7929 5.07365 37.8606 5.07368C38.0385 5.07378 38.2163 5.07405 38.3942 5.07436C38.5758 5.07464 38.7574 5.07477 38.9391 5.07491C39.2952 5.0752 39.6513 5.07566 40.0074 5.07625C39.9863 5.21233 39.9483 5.33387 39.8978 5.46187C39.885 5.49502 39.885 5.49502 39.8719 5.52885C39.8429 5.60349 39.8137 5.67806 39.7845 5.75262C39.7526 5.83458 39.7208 5.91657 39.689 5.99855C39.6657 6.05866 39.6423 6.11876 39.619 6.17886C39.5259 6.4185 39.4336 6.65845 39.3417 6.89854C39.3176 6.96135 39.2936 7.02415 39.2695 7.08696C39.1737 7.33709 39.1737 7.33709 39.078 7.58727C38.927 7.98199 38.7755 8.37638 38.6164 8.76802C38.6053 8.79545 38.5942 8.82288 38.5828 8.85114C38.2301 9.71177 37.5874 10.3745 36.7213 10.7535C36.2844 10.9347 35.8299 11.0291 35.3566 11.0273C35.313 11.0273 35.313 11.0273 35.2685 11.0274C35.1731 11.0273 35.0777 11.0271 34.9823 11.0269C34.9159 11.0269 34.8495 11.0268 34.7831 11.0268C34.6088 11.0267 34.4345 11.0264 34.2602 11.0261C34.0822 11.0258 33.9041 11.0257 33.7261 11.0256C33.3771 11.0253 33.0281 11.0248 32.6791 11.0242C32.7273 10.8805 32.7768 10.7376 32.8305 10.5958C32.8432 10.5621 32.856 10.5285 32.8691 10.4938C32.8829 10.4574 32.8967 10.4211 32.9105 10.3847C32.9251 10.3461 32.9398 10.3074 32.9544 10.2687C33.0018 10.1436 33.0492 10.0186 33.0967 9.89348C33.1131 9.85034 33.1295 9.8072 33.1458 9.76406C33.2126 9.58826 33.2793 9.41247 33.3461 9.23669C33.4318 9.01116 33.5173 8.78556 33.6024 8.55981C33.6618 8.40232 33.7214 8.2449 33.7811 8.08751C33.8053 8.02347 33.8295 7.95939 33.8535 7.89528C34.2882 6.73831 34.8493 5.87144 36.0203 5.32408C36.4143 5.15305 36.847 5.07159 37.2757 5.07312Z" fill="#F9F7F5"/>
</svg>
