<svg width="370" height="342" viewBox="0 0 370 342" fill="none" xmlns="http://www.w3.org/2000/svg">
<path d="M149.03 0.000555614C149.303 0.000517495 149.576 0.000479379 149.857 0.000440106C150.752 0.000620984 151.647 0.00264746 152.543 0.00469799C153.166 0.00518518 153.789 0.00555659 154.413 0.00581723C156.048 0.0068112 157.684 0.00937336 159.32 0.0122658C160.991 0.0149418 162.662 0.0161295 164.333 0.0174438C167.609 0.0202386 170.884 0.0246401 174.16 0.0301895C172.677 4.20924 171.177 8.3805 169.622 12.5331C169.089 13.9558 168.558 15.3793 168.026 16.8026C167.912 17.1084 167.798 17.4143 167.68 17.7294C166.291 21.4508 164.908 25.175 163.525 28.899C163.164 29.8719 162.803 30.8447 162.442 31.8175C161.928 33.2003 161.415 34.583 160.901 35.9658C159.967 38.4811 159.033 40.9964 158.099 43.5116C157.994 43.7934 157.994 43.7934 157.888 44.0809C157.536 45.0284 157.184 45.9758 156.832 46.9233C156.196 48.6346 155.561 50.3458 154.925 52.0571C154.571 53.0089 154.218 53.9607 153.864 54.9125C153.723 55.2931 153.582 55.6738 153.44 56.0545C153.157 56.8158 152.875 57.5772 152.592 58.3385C152.522 58.527 152.452 58.7154 152.38 58.9096C152.238 59.2902 152.097 59.6708 151.956 60.0515C151.602 61.0036 151.248 61.9558 150.895 62.9079C150.26 64.6155 149.626 66.3231 148.992 68.0306C148.641 68.9751 148.29 69.9196 147.939 70.8641C147.87 71.0514 147.8 71.2386 147.728 71.4316C146.775 73.9991 145.822 76.5669 144.87 79.135C144.34 80.5635 143.811 81.9919 143.281 83.4203C142.924 84.383 142.567 85.3458 142.21 86.3088C140.192 91.7587 138.131 97.1905 136.049 102.616C140.097 102.616 144.146 102.616 148.317 102.616C148.705 101.324 148.705 101.324 149.1 100.006C149.249 99.5643 149.4 99.1239 149.559 98.6861C149.641 98.4619 149.722 98.2377 149.806 98.0067C149.891 97.7731 149.977 97.5395 150.065 97.2988C150.157 97.0477 150.249 96.7967 150.343 96.538C150.537 96.0089 150.732 95.4801 150.926 94.9513C151.217 94.1601 151.505 93.3677 151.792 92.5752C155.531 82.3619 160.904 74.1394 171 69.3998C172.773 68.6143 174.624 68.0838 176.509 67.6379C176.755 67.5729 177 67.508 177.253 67.4411C180.477 66.6788 183.677 66.7555 186.974 66.7783C187.6 66.7797 188.227 66.7809 188.853 66.7816C190.489 66.7846 192.126 66.7923 193.762 66.801C195.437 66.809 197.111 66.8126 198.786 66.8165C202.063 66.8249 205.339 66.8382 208.616 66.8548C206.674 72.4351 206.674 72.4351 205.764 74.855C205.675 75.0929 205.586 75.3308 205.495 75.576C205.304 76.088 205.112 76.6 204.92 77.1118C204.377 78.5626 203.835 80.0141 203.293 81.4655C203.177 81.7778 203.06 82.0901 202.94 82.4118C201.543 86.1515 200.154 89.8939 198.765 93.6363C198.404 94.6086 198.043 95.581 197.681 96.5533C197.168 97.9362 196.654 99.3192 196.141 100.702C195.207 103.217 194.273 105.733 193.339 108.248C193.269 108.436 193.199 108.624 193.127 108.817C192.775 109.765 192.423 110.712 192.071 111.66C191.436 113.371 190.8 115.082 190.164 116.793C189.811 117.745 189.457 118.697 189.104 119.649C188.962 120.029 188.821 120.41 188.68 120.791C188.397 121.552 188.114 122.313 187.831 123.075C187.761 123.263 187.691 123.452 187.619 123.646C187.478 124.026 187.336 124.407 187.195 124.788C186.841 125.74 186.488 126.692 186.134 127.644C185.5 129.352 184.866 131.059 184.231 132.767C183.88 133.711 183.529 134.656 183.179 135.6C183.109 135.788 183.039 135.975 182.968 136.168C182.014 138.735 181.061 141.303 180.109 143.871C179.58 145.3 179.05 146.728 178.52 148.157C178.163 149.119 177.806 150.082 177.45 151.045C176.009 154.936 174.56 158.824 173.086 162.703C172.94 163.087 172.795 163.471 172.65 163.855C171.119 167.909 169.393 171.568 166.59 174.923C166.373 175.182 166.156 175.442 165.932 175.71C160.881 181.563 153.599 185.326 145.968 186.408C144.972 186.473 143.98 186.475 142.982 186.467C142.558 186.467 142.558 186.467 142.125 186.468C141.2 186.467 140.275 186.463 139.349 186.459C138.704 186.458 138.058 186.457 137.413 186.457C135.722 186.455 134.031 186.45 132.339 186.444C130.61 186.439 128.882 186.436 127.153 186.434C123.766 186.428 120.38 186.419 116.993 186.408C118.075 183.292 119.176 180.185 120.328 177.093C120.465 176.723 120.603 176.352 120.74 175.982C121.102 175.007 121.465 174.033 121.828 173.059C122.053 172.454 122.278 171.849 122.503 171.244C124.398 166.147 126.299 161.053 128.218 155.965C128.31 155.72 128.402 155.476 128.497 155.224C128.751 154.548 129.006 153.873 129.262 153.198C129.335 153.004 129.408 152.811 129.483 152.611C129.808 151.754 130.156 150.946 130.567 150.124C126.518 150.124 122.47 150.124 118.299 150.124C118.04 150.986 117.782 151.847 117.515 152.735C117.366 153.178 117.213 153.62 117.052 154.059C116.97 154.284 116.888 154.509 116.804 154.741C116.717 154.975 116.631 155.21 116.542 155.451C116.403 155.829 116.403 155.829 116.262 156.214C116.066 156.744 115.871 157.274 115.675 157.804C115.382 158.598 115.091 159.393 114.801 160.188C113.912 162.606 112.999 165.005 111.955 167.361C111.873 167.546 111.791 167.731 111.707 167.922C109.17 173.523 104.785 178.543 99.5041 181.709C99.3422 181.807 99.1803 181.904 99.0134 182.005C94.3573 184.758 89.1871 186.507 83.7517 186.467C83.4712 186.467 83.1907 186.467 82.9018 186.468C81.9851 186.467 81.0686 186.463 80.152 186.459C79.5123 186.458 78.8726 186.457 78.233 186.457C76.5572 186.455 74.8815 186.45 73.2058 186.444C71.4927 186.439 69.7795 186.436 68.0664 186.434C64.7109 186.428 61.3554 186.419 57.9998 186.408C58.1332 185.348 58.2866 184.371 58.662 183.369C58.7863 183.034 58.7863 183.034 58.9132 182.691C59.0044 182.45 59.0957 182.209 59.1898 181.961C59.2866 181.701 59.3835 181.441 59.4833 181.173C59.8083 180.302 60.1358 179.431 60.4633 178.561C60.6973 177.935 60.9311 177.308 61.1647 176.682C61.6041 175.505 62.0439 174.327 62.4846 173.151C63.3603 170.812 64.2309 168.471 65.0997 166.13C65.1678 165.947 65.2359 165.763 65.306 165.574C65.5843 164.824 65.8626 164.074 66.1408 163.324C66.8591 161.389 67.5782 159.453 68.2974 157.517C68.6632 156.533 69.029 155.549 69.3948 154.564C69.4672 154.369 69.5396 154.174 69.6141 153.974C70.4 151.859 71.1856 149.743 71.9712 147.628C72.041 147.44 72.1108 147.252 72.1828 147.059C72.5349 146.111 72.8871 145.162 73.2392 144.214C73.8749 142.503 74.5106 140.791 75.1464 139.08C75.4999 138.128 75.8534 137.176 76.2069 136.224C76.3483 135.844 76.4897 135.463 76.6311 135.082C76.7011 134.894 76.7711 134.706 76.8432 134.511C83.8421 115.668 90.8411 96.8247 104.627 59.709C104.697 59.5205 104.767 59.3321 104.839 59.1379C104.98 58.7573 105.122 58.3767 105.263 57.996C105.617 57.0437 105.971 56.0914 106.324 55.1391C106.958 53.4336 107.591 51.7281 108.225 50.0227C108.575 49.0811 108.925 48.1394 109.275 47.1977C109.344 47.0109 109.413 46.824 109.485 46.6315C110.452 44.0276 111.418 41.4231 112.382 38.8182C112.923 37.358 113.464 35.8979 114.006 34.4379C114.373 33.4464 114.74 32.4548 115.107 31.4631C117.702 24.4452 117.702 24.4452 118.949 21.3075C119.068 21.0081 119.068 21.0081 119.188 20.7027C120.879 16.5072 123.288 12.9783 126.391 9.68843C126.55 9.51177 126.71 9.33511 126.875 9.1531C131.163 4.59047 137.026 2.08266 142.971 0.556335C143.147 0.51133 143.322 0.466324 143.502 0.419955C145.35 0.0473473 147.152 -0.00639446 149.03 0.000555614Z" fill="#F35F4F"/>
<path d="M245.681 0.291691C245.854 0.291691 246.026 0.291691 246.203 0.291691C248.937 7.9345 251.665 15.5796 254.377 23.23C255.966 27.7125 257.557 32.1947 259.157 36.6732C259.233 36.8863 259.309 37.0993 259.388 37.3188C259.865 38.6531 260.342 39.9872 260.819 41.3214C261.739 43.894 262.659 46.4668 263.578 49.0397C263.688 49.345 263.797 49.6503 263.909 49.9649C265.738 55.0836 267.557 60.2058 269.373 65.3291C271.209 70.5114 273.057 75.6896 274.916 80.8642C276.448 85.1323 277.969 89.4045 279.48 93.6802C280.969 97.8911 282.468 102.098 283.972 106.304C285.861 111.587 287.742 116.873 289.617 122.162C291.206 126.644 292.796 131.126 294.397 135.605C294.473 135.818 294.549 136.031 294.627 136.25C295.104 137.585 295.582 138.919 296.059 140.253C296.979 142.826 297.899 145.398 298.818 147.971C298.927 148.276 299.035 148.58 299.148 148.894C300.937 153.902 302.718 158.914 304.495 163.927C306.177 168.671 307.861 173.413 309.553 178.153C309.634 178.379 309.714 178.605 309.797 178.838C310.021 179.466 310.245 180.093 310.47 180.721C310.565 180.987 310.565 180.987 310.662 181.259C310.722 181.427 310.782 181.595 310.844 181.767C310.901 181.929 310.959 182.091 311.018 182.258C311.147 182.607 311.281 182.953 311.42 183.298C311.492 183.478 311.564 183.658 311.638 183.844C311.704 184.004 311.77 184.164 311.838 184.33C312.015 184.95 312.007 185.505 311.984 186.148C308.487 186.166 304.99 186.18 301.493 186.188C299.869 186.192 298.244 186.198 296.62 186.207C295.05 186.215 293.479 186.22 291.908 186.222C291.312 186.223 290.716 186.226 290.12 186.23C285.909 186.259 281.839 186.089 277.821 184.695C277.631 184.63 277.44 184.565 277.244 184.498C273.491 183.148 270.113 181.163 267.086 178.578C266.824 178.361 266.563 178.145 266.293 177.922C261.228 173.544 258.508 167.819 256.314 161.625C255.936 160.563 255.553 159.502 255.171 158.44C254.67 157.046 254.169 155.652 253.671 154.256C253.594 154.039 253.516 153.821 253.436 153.597C253.289 153.185 253.142 152.772 252.995 152.359C252.641 151.356 252.641 151.356 252.207 150.386C231.706 150.3 211.204 150.214 190.081 150.125C190.538 148.601 190.981 147.139 191.531 145.657C191.592 145.49 191.654 145.323 191.718 145.151C191.919 144.607 192.122 144.063 192.324 143.52C192.469 143.131 192.613 142.743 192.757 142.354C193.059 141.54 193.362 140.726 193.665 139.912C194.045 138.893 194.424 137.874 194.802 136.854C196.252 132.943 197.715 129.038 199.232 125.153C199.402 124.716 199.402 124.716 199.575 124.27C201.003 120.643 202.711 117.368 205.221 114.363C205.435 114.107 205.649 113.85 205.87 113.585C210.55 108.151 217.005 104.542 224.016 103.139C224.24 103.093 224.465 103.047 224.697 103C226.88 102.594 229.044 102.505 231.259 102.454C231.622 102.444 231.985 102.433 232.348 102.423C233.225 102.399 234.102 102.376 234.979 102.356C232.715 96.0339 230.45 89.7121 228.174 83.3943C227.785 82.3132 227.396 81.2319 227.008 80.1505C226.173 77.8256 225.335 75.502 224.479 73.185C224.127 72.234 223.778 71.2821 223.43 70.3301C223.268 69.8896 223.104 69.4495 222.939 69.01C222.715 68.4112 222.494 67.8109 222.275 67.2101C222.209 67.037 222.142 66.8638 222.074 66.6855C221.476 65.0206 221.861 63.7871 222.472 62.1816C222.644 61.7282 222.644 61.7282 222.818 61.2657C222.945 60.9346 223.072 60.6034 223.199 60.2723C223.332 59.9212 223.465 59.5701 223.598 59.2189C223.884 58.4634 224.171 57.7082 224.459 56.9533C225.158 55.1181 225.853 53.2811 226.548 51.4442C226.709 51.0192 226.87 50.5942 227.031 50.1693C228.673 45.8328 230.289 41.4869 231.899 37.1384C234.494 30.1317 237.116 23.1359 239.755 16.1459C240.1 15.2314 240.445 14.317 240.79 13.4025C240.889 13.1404 240.889 13.1404 240.99 12.8729C242.57 8.68527 244.133 4.4913 245.681 0.291691Z" fill="#F35F4F"/>
<path d="M208.019 0.133571C208.294 0.133533 208.569 0.133495 208.853 0.133456C209.758 0.133637 210.663 0.135665 211.569 0.137714C212.198 0.138201 212.828 0.138572 213.457 0.138833C215.11 0.139828 216.764 0.14239 218.417 0.145281C220.106 0.147956 221.794 0.149145 223.483 0.150459C226.794 0.153256 230.104 0.157658 233.415 0.163205C233.219 1.45315 232.866 2.60531 232.396 3.81869C232.277 4.13294 232.277 4.13294 232.155 4.45354C231.886 5.16115 231.614 5.86797 231.343 6.57484C231.047 7.35177 230.751 8.1289 230.455 8.90605C230.238 9.47586 230.021 10.0456 229.804 10.6153C228.938 12.887 228.081 15.1616 227.226 17.4374C227.002 18.0328 226.779 18.6282 226.555 19.2236C225.664 21.5947 225.664 21.5947 224.774 23.9662C223.371 27.7079 221.963 31.4465 220.484 35.159C220.38 35.419 220.277 35.679 220.171 35.9469C216.892 44.1052 210.917 50.3873 202.865 53.9801C198.803 55.6983 194.578 56.5925 190.178 56.5761C189.772 56.5761 189.772 56.5761 189.359 56.5762C188.472 56.576 187.585 56.574 186.698 56.5719C186.081 56.5714 185.463 56.5711 184.846 56.5708C183.226 56.5698 181.605 56.5672 179.985 56.5643C178.329 56.5617 176.674 56.5605 175.019 56.5592C171.774 56.5564 168.53 56.5519 165.285 56.5464C165.733 55.1843 166.194 53.8294 166.693 52.485C166.812 52.1661 166.93 51.8471 167.052 51.5184C167.18 51.1738 167.308 50.8292 167.437 50.4845C167.573 50.118 167.709 49.7514 167.845 49.3849C168.285 48.199 168.727 47.0133 169.168 45.8277C169.32 45.4188 169.472 45.0099 169.625 44.6009C170.245 42.9344 170.865 41.268 171.486 39.6018C172.283 37.4638 173.078 35.3253 173.869 33.1853C174.421 31.6923 174.975 30.2001 175.53 28.7082C175.756 28.1011 175.98 27.4937 176.204 26.886C180.245 15.9186 185.462 7.70111 196.348 2.51251C200.011 0.891203 204.033 0.119021 208.019 0.133571Z" fill="#FF9A34"/>
<path d="M61.5 221.47V290.47H48.4V261.27H25.5V290.47H12.4V221.47H25.5V249.87H48.4V221.47H61.5ZM109.538 277.07H85.8375L81.6375 290.47H67.8375L92.3375 221.47H103.038L127.638 290.47H113.738L109.538 277.07ZM106.038 266.17L97.6375 239.67L89.3375 266.17H106.038ZM133.982 221.47H147.082V279.07H177.282V290.47H133.982V221.47ZM185.545 221.47H198.645V279.07H228.845V290.47H185.545V221.47ZM282.434 221.47H295.534V290.47H282.434V221.47ZM344.108 277.07H320.408L316.208 290.47H302.408L326.908 221.47H337.608L362.208 290.47H348.308L344.108 277.07ZM340.608 266.17L332.208 239.67L323.908 266.17H340.608Z" fill="#4B220A"/>
<path d="M1.98843 335.47V316.961H4.62906L9.9357 329.021L15.1408 316.961H17.7941V335.47H14.9884V323.93H14.925L11.0529 332.817H8.71695L4.84488 323.93H4.7941V335.47H1.98843ZM20.2829 328.869C20.2829 327.481 20.3971 326.414 20.6257 325.67C20.8626 324.942 21.2266 324.328 21.7175 323.829C22.0814 323.389 22.5892 322.995 23.2409 322.648C23.8841 322.318 24.7093 322.144 25.7165 322.128C26.7575 322.144 27.5996 322.318 28.2428 322.648C28.8776 322.995 29.3685 323.389 29.7155 323.829C30.2402 324.328 30.6126 324.942 30.8327 325.67C31.0443 326.414 31.1501 327.481 31.1501 328.869C31.1501 330.257 31.0443 331.315 30.8327 332.043C30.6126 332.77 30.2402 333.401 29.7155 333.934C29.5462 334.129 29.3389 334.319 29.0934 334.505C28.8734 334.717 28.5899 334.899 28.2428 335.051C27.5996 335.415 26.7575 335.606 25.7165 335.623C24.7093 335.606 23.8841 335.415 23.2409 335.051C22.5892 334.721 22.0814 334.349 21.7175 333.934C21.2266 333.401 20.8626 332.77 20.6257 332.043C20.3971 331.315 20.2829 330.257 20.2829 328.869ZM28.4968 328.894C28.4968 327.955 28.4544 327.269 28.3698 326.837C28.2852 326.423 28.1117 326.059 27.8493 325.746C27.6546 325.449 27.3669 325.217 26.986 325.047C26.6221 324.87 26.1989 324.781 25.7165 324.781C25.2679 324.781 24.8532 324.87 24.4723 325.047C24.1084 325.217 23.8122 325.449 23.5837 325.746C23.3552 326.059 23.1901 326.423 23.0886 326.837C22.987 327.269 22.9362 327.946 22.9362 328.869C22.9362 329.783 22.987 330.451 23.0886 330.875C23.1901 331.306 23.3552 331.687 23.5837 332.017C23.8122 332.271 24.1084 332.495 24.4723 332.69C24.8532 332.876 25.2679 332.969 25.7165 332.969C26.1989 332.969 26.6221 332.876 26.986 332.69C27.3669 332.495 27.6546 332.271 27.8493 332.017C28.1117 331.687 28.2852 331.306 28.3698 330.875C28.4544 330.451 28.4968 329.791 28.4968 328.894ZM33.4865 335.47V322.293H36.1398V335.47H33.4865ZM33.4865 319.614V316.961H36.1398V319.614H33.4865ZM39.1364 335.47V322.293H41.7898V323.689H41.8405C42.7123 322.648 43.8549 322.128 45.2683 322.128C46.3601 322.128 47.3588 322.513 48.2644 323.283C49.1615 324.061 49.6312 325.204 49.6735 326.711V335.47H47.0202V327.625C47.0202 326.702 46.7748 326 46.2839 325.517C45.8015 325.026 45.1794 324.781 44.4177 324.781C43.656 324.781 43.0297 325.026 42.5388 325.517C42.0394 326 41.7898 326.702 41.7898 327.625V335.47H39.1364ZM52.9748 331.446C54.0497 332.572 55.4377 333.134 57.1389 333.134C57.9006 333.134 58.5227 332.986 59.0051 332.69C59.4875 332.394 59.7287 331.979 59.7287 331.446C59.7287 330.972 59.5849 330.642 59.2971 330.456C59.0009 330.261 58.6073 330.155 58.1164 330.138L55.7805 329.935C54.6718 329.834 53.7704 329.461 53.0764 328.818C52.3655 328.192 52.0015 327.316 51.9846 326.19C52.0015 324.836 52.4797 323.82 53.4192 323.143C54.3332 322.466 55.4927 322.128 56.8977 322.128C57.5071 322.128 58.053 322.166 58.5354 322.242C59.0178 322.326 59.4706 322.445 59.8938 322.597C60.7063 322.927 61.4341 323.372 62.0774 323.93L60.4397 325.847C59.9319 325.483 59.3944 325.183 58.8274 324.946C58.2688 324.734 57.6256 324.628 56.8977 324.628C56.0683 324.628 55.4885 324.777 55.1584 325.073C54.8114 325.369 54.6379 325.75 54.6379 326.215C54.621 326.512 54.7522 326.77 55.0315 326.99C55.2854 327.235 55.734 327.392 56.3772 327.46L58.5608 327.625C59.9319 327.726 60.9221 328.141 61.5315 328.869C62.0985 329.58 62.3821 330.481 62.3821 331.573C62.3651 332.851 61.8446 333.837 60.8205 334.531C59.8049 335.242 58.5058 335.606 56.9231 335.623C54.7733 335.623 52.8394 334.836 51.1213 333.261L52.9748 331.446ZM78.1634 334.086C77.2916 335.077 76.1533 335.589 74.7483 335.623C73.9527 335.606 73.2714 335.441 72.7044 335.128C72.1119 334.823 71.6168 334.417 71.219 333.909C70.8551 333.494 70.6139 332.931 70.4954 332.22C70.3515 331.543 70.2796 330.426 70.2796 328.869C70.2796 327.286 70.3515 326.16 70.4954 325.492C70.6139 324.815 70.8551 324.269 71.219 323.854C71.9638 322.745 73.1402 322.17 74.7483 322.128C75.4254 322.128 76.0517 322.267 76.6272 322.546C77.1604 322.843 77.6725 323.224 78.1634 323.689V316.961H80.8167V335.47H78.1634V334.086ZM75.5608 324.781C74.9345 324.781 74.4563 324.887 74.1262 325.098C73.7623 325.327 73.4957 325.64 73.3264 326.038C73.1656 326.435 73.0598 326.867 73.0091 327.333C72.9583 327.832 72.9329 328.344 72.9329 328.869C72.9329 329.368 72.9583 329.855 73.0091 330.329C73.0598 330.828 73.1656 331.277 73.3264 331.674C73.4957 332.055 73.7623 332.368 74.1262 332.614C74.4563 332.851 74.9345 332.969 75.5608 332.969C76.1871 332.969 76.6822 332.842 77.0462 332.588C77.4101 332.343 77.6598 332.021 77.7952 331.624C77.9645 331.226 78.0787 330.781 78.138 330.291C78.1549 329.808 78.1634 329.334 78.1634 328.869C78.1634 328.361 78.1549 327.874 78.138 327.409C78.0787 326.943 77.9645 326.512 77.7952 326.114C77.6598 325.716 77.4101 325.394 77.0462 325.149C76.6822 324.904 76.1871 324.781 75.5608 324.781ZM83.3436 321.531V316.961H85.9969V319.614L83.3436 321.531ZM99.2132 329.884H90.9993C90.9993 330.942 91.304 331.746 91.9134 332.296C92.4804 332.855 93.2252 333.134 94.1478 333.134C95.2226 333.134 96.1832 332.707 97.0296 331.852L98.9466 333.49C97.6009 334.929 96.0182 335.64 94.1985 335.623C93.5045 335.623 92.8275 335.521 92.1673 335.318C91.8372 335.208 91.5156 335.06 91.2025 334.874C90.8724 334.713 90.5635 334.514 90.2757 334.277C89.7171 333.786 89.2643 333.1 88.9173 332.22C88.5364 331.374 88.346 330.274 88.346 328.92C88.346 327.616 88.511 326.533 88.8411 325.67C89.1712 324.789 89.5944 324.095 90.1107 323.587C90.6354 323.071 91.2236 322.699 91.8753 322.47C92.5185 322.242 93.1533 322.128 93.7796 322.128C95.2861 322.144 96.5599 322.64 97.6009 323.613C98.6588 324.603 99.1963 325.966 99.2132 327.701V329.884ZM90.9993 327.701H96.5599C96.526 326.677 96.251 325.902 95.7347 325.378C95.2269 324.878 94.5752 324.628 93.7796 324.628C92.984 324.628 92.3323 324.878 91.8245 325.378C91.3252 325.902 91.0501 326.677 90.9993 327.701ZM101.892 335.47V324.311H100.559V322.293H101.892V320.553C101.892 319.301 102.239 318.378 102.933 317.786C103.611 317.236 104.461 316.961 105.485 316.961H107.199V319.461H105.688C104.893 319.436 104.512 319.8 104.546 320.553V322.293H107.199V324.311H104.546V335.47H101.892ZM108.126 335.47V324.311H106.793V322.293H108.126V320.553C108.126 319.301 108.473 318.378 109.167 317.786C109.844 317.236 110.695 316.961 111.719 316.961H113.433V319.461H111.922C111.127 319.436 110.746 319.8 110.78 320.553V322.293H113.433V324.311H110.78V335.47H108.126ZM113.776 328.869C113.776 327.481 113.891 326.414 114.119 325.67C114.356 324.942 114.72 324.328 115.211 323.829C115.575 323.389 116.083 322.995 116.734 322.648C117.377 322.318 118.203 322.144 119.21 322.128C120.251 322.144 121.093 322.318 121.736 322.648C122.371 322.995 122.862 323.389 123.209 323.829C123.734 324.328 124.106 324.942 124.326 325.67C124.538 326.414 124.643 327.481 124.643 328.869C124.643 330.257 124.538 331.315 124.326 332.043C124.106 332.77 123.734 333.401 123.209 333.934C123.04 334.129 122.832 334.319 122.587 334.505C122.367 334.717 122.083 334.899 121.736 335.051C121.093 335.415 120.251 335.606 119.21 335.623C118.203 335.606 117.377 335.415 116.734 335.051C116.083 334.721 115.575 334.349 115.211 333.934C114.72 333.401 114.356 332.77 114.119 332.043C113.891 331.315 113.776 330.257 113.776 328.869ZM121.99 328.894C121.99 327.955 121.948 327.269 121.863 326.837C121.779 326.423 121.605 326.059 121.343 325.746C121.148 325.449 120.86 325.217 120.479 325.047C120.115 324.87 119.692 324.781 119.21 324.781C118.761 324.781 118.347 324.87 117.966 325.047C117.602 325.217 117.306 325.449 117.077 325.746C116.849 326.059 116.683 326.423 116.582 326.837C116.48 327.269 116.43 327.946 116.43 328.869C116.43 329.783 116.48 330.451 116.582 330.875C116.683 331.306 116.849 331.687 117.077 332.017C117.306 332.271 117.602 332.495 117.966 332.69C118.347 332.876 118.761 332.969 119.21 332.969C119.692 332.969 120.115 332.876 120.479 332.69C120.86 332.495 121.148 332.271 121.343 332.017C121.605 331.687 121.779 331.306 121.863 330.875C121.948 330.451 121.99 329.791 121.99 328.894ZM126.904 335.47V322.293H129.557V323.689H129.608C130.48 322.648 131.622 322.128 133.036 322.128C134.093 322.144 135.016 322.483 135.803 323.143L133.873 325.441C133.315 325.001 132.735 324.781 132.134 324.781C131.457 324.781 130.877 325.001 130.395 325.441C129.853 325.873 129.574 326.571 129.557 327.536V335.47H126.904ZM136.667 322.293V318.281H139.32V322.293H141.25V324.311H139.32V331.992C139.303 332.66 139.616 332.986 140.26 332.969H141.25V335.47H139.866C138.935 335.47 138.173 335.183 137.581 334.607C136.972 334.057 136.667 333.261 136.667 332.22V324.311H135.347V322.293H136.667ZM143.307 337.4V332.817H145.96V335.47L143.307 337.4ZM154.683 340.802V322.293H157.336V323.664C158.217 322.682 159.351 322.17 160.739 322.128C162.355 322.17 163.536 322.745 164.281 323.854C164.645 324.269 164.894 324.815 165.03 325.492C165.157 326.16 165.22 327.295 165.22 328.894C165.22 330.451 165.157 331.569 165.03 332.246C164.894 332.923 164.645 333.477 164.281 333.909C163.917 334.417 163.439 334.823 162.846 335.128C162.262 335.441 161.56 335.606 160.739 335.623C160.062 335.623 159.457 335.475 158.923 335.178C158.348 334.907 157.819 334.535 157.336 334.061V340.802H154.683ZM159.939 332.969C160.565 332.969 161.06 332.851 161.424 332.614C161.788 332.368 162.046 332.055 162.199 331.674C162.368 331.277 162.482 330.836 162.541 330.354C162.558 329.88 162.567 329.393 162.567 328.894C162.567 328.369 162.558 327.857 162.541 327.358C162.482 326.859 162.368 326.419 162.199 326.038C162.046 325.64 161.788 325.327 161.424 325.098C161.06 324.887 160.565 324.781 159.939 324.781C159.346 324.781 158.877 324.904 158.53 325.149C158.166 325.394 157.899 325.716 157.73 326.114C157.569 326.512 157.463 326.943 157.413 327.409C157.362 327.9 157.336 328.395 157.336 328.894C157.336 329.36 157.362 329.825 157.413 330.291C157.463 330.781 157.569 331.226 157.73 331.624C157.899 332.021 158.166 332.343 158.53 332.588C158.877 332.842 159.346 332.969 159.939 332.969ZM167.671 332.271V316.961H170.324V332.068C170.324 332.669 170.654 332.969 171.314 332.969H172.229V335.47H171.048C170.083 335.47 169.287 335.229 168.661 334.747C168.001 334.256 167.671 333.431 167.671 332.271ZM173.854 331.052V322.293H176.507V330.138C176.507 331.027 176.757 331.721 177.256 332.22C177.747 332.72 178.374 332.969 179.135 332.969C179.897 332.969 180.519 332.72 181.001 332.22C181.492 331.721 181.738 331.027 181.738 330.138V322.293H184.391V335.47H181.738V334.061H181.687C180.815 335.102 179.677 335.623 178.272 335.623C177.18 335.606 176.194 335.208 175.314 334.429C174.358 333.668 173.871 332.542 173.854 331.052ZM187.692 331.446C188.767 332.572 190.155 333.134 191.856 333.134C192.618 333.134 193.24 332.986 193.723 332.69C194.205 332.394 194.446 331.979 194.446 331.446C194.446 330.972 194.302 330.642 194.015 330.456C193.718 330.261 193.325 330.155 192.834 330.138L190.498 329.935C189.389 329.834 188.488 329.461 187.794 328.818C187.083 328.192 186.719 327.316 186.702 326.19C186.719 324.836 187.197 323.82 188.137 323.143C189.051 322.466 190.21 322.128 191.615 322.128C192.225 322.128 192.771 322.166 193.253 322.242C193.735 322.326 194.188 322.445 194.611 322.597C195.424 322.927 196.152 323.372 196.795 323.93L195.157 325.847C194.649 325.483 194.112 325.183 193.545 324.946C192.986 324.734 192.343 324.628 191.615 324.628C190.786 324.628 190.206 324.777 189.876 325.073C189.529 325.369 189.355 325.75 189.355 326.215C189.339 326.512 189.47 326.77 189.749 326.99C190.003 327.235 190.452 327.392 191.095 327.46L193.278 327.625C194.649 327.726 195.64 328.141 196.249 328.869C196.816 329.58 197.1 330.481 197.1 331.573C197.083 332.851 196.562 333.837 195.538 334.531C194.522 335.242 193.223 335.606 191.641 335.623C189.491 335.623 187.557 334.836 185.839 333.261L187.692 331.446ZM212.881 334.086C212.009 335.077 210.871 335.589 209.466 335.623C208.67 335.606 207.989 335.441 207.422 335.128C206.83 334.823 206.334 334.417 205.937 333.909C205.573 333.494 205.331 332.931 205.213 332.22C205.069 331.543 204.997 330.426 204.997 328.869C204.997 327.286 205.069 326.16 205.213 325.492C205.331 324.815 205.573 324.269 205.937 323.854C206.681 322.745 207.858 322.17 209.466 322.128C210.143 322.128 210.769 322.267 211.345 322.546C211.878 322.843 212.39 323.224 212.881 323.689V316.961H215.534V335.47H212.881V334.086ZM210.278 324.781C209.652 324.781 209.174 324.887 208.844 325.098C208.48 325.327 208.213 325.64 208.044 326.038C207.883 326.435 207.777 326.867 207.727 327.333C207.676 327.832 207.65 328.344 207.65 328.869C207.65 329.368 207.676 329.855 207.727 330.329C207.777 330.828 207.883 331.277 208.044 331.674C208.213 332.055 208.48 332.368 208.844 332.614C209.174 332.851 209.652 332.969 210.278 332.969C210.905 332.969 211.4 332.842 211.764 332.588C212.128 332.343 212.377 332.021 212.513 331.624C212.682 331.226 212.796 330.781 212.856 330.291C212.872 329.808 212.881 329.334 212.881 328.869C212.881 328.361 212.872 327.874 212.856 327.409C212.796 326.943 212.682 326.512 212.513 326.114C212.377 325.716 212.128 325.394 211.764 325.149C211.4 324.904 210.905 324.781 210.278 324.781ZM228.205 329.884H219.991C219.991 330.942 220.296 331.746 220.905 332.296C221.472 332.855 222.217 333.134 223.139 333.134C224.214 333.134 225.175 332.707 226.021 331.852L227.938 333.49C226.592 334.929 225.01 335.64 223.19 335.623C222.496 335.623 221.819 335.521 221.159 335.318C220.829 335.208 220.507 335.06 220.194 334.874C219.864 334.713 219.555 334.514 219.267 334.277C218.709 333.786 218.256 333.1 217.909 332.22C217.528 331.374 217.337 330.274 217.337 328.92C217.337 327.616 217.503 326.533 217.833 325.67C218.163 324.789 218.586 324.095 219.102 323.587C219.627 323.071 220.215 322.699 220.867 322.47C221.51 322.242 222.145 322.128 222.771 322.128C224.278 322.144 225.551 322.64 226.592 323.613C227.65 324.603 228.188 325.966 228.205 327.701V329.884ZM219.991 327.701H225.551C225.518 326.677 225.242 325.902 224.726 325.378C224.218 324.878 223.567 324.628 222.771 324.628C221.976 324.628 221.324 324.878 220.816 325.378C220.317 325.902 220.042 326.677 219.991 327.701ZM236.191 340.802V322.293H238.844V323.664C239.725 322.682 240.859 322.17 242.247 322.128C243.863 322.17 245.044 322.745 245.789 323.854C246.153 324.269 246.402 324.815 246.538 325.492C246.665 326.16 246.728 327.295 246.728 328.894C246.728 330.451 246.665 331.569 246.538 332.246C246.402 332.923 246.153 333.477 245.789 333.909C245.425 334.417 244.947 334.823 244.354 335.128C243.77 335.441 243.068 335.606 242.247 335.623C241.57 335.623 240.964 335.475 240.431 335.178C239.856 334.907 239.327 334.535 238.844 334.061V340.802H236.191ZM241.447 332.969C242.073 332.969 242.568 332.851 242.932 332.614C243.296 332.368 243.554 332.055 243.707 331.674C243.876 331.277 243.99 330.836 244.049 330.354C244.066 329.88 244.075 329.393 244.075 328.894C244.075 328.369 244.066 327.857 244.049 327.358C243.99 326.859 243.876 326.419 243.707 326.038C243.554 325.64 243.296 325.327 242.932 325.098C242.568 324.887 242.073 324.781 241.447 324.781C240.854 324.781 240.385 324.904 240.038 325.149C239.674 325.394 239.407 325.716 239.238 326.114C239.077 326.512 238.971 326.943 238.921 327.409C238.87 327.9 238.844 328.395 238.844 328.894C238.844 329.36 238.87 329.825 238.921 330.291C238.971 330.781 239.077 331.226 239.238 331.624C239.407 332.021 239.674 332.343 240.038 332.588C240.385 332.842 240.854 332.969 241.447 332.969ZM259.399 329.884H251.185C251.185 330.942 251.489 331.746 252.099 332.296C252.666 332.855 253.411 333.134 254.333 333.134C255.408 333.134 256.369 332.707 257.215 331.852L259.132 333.49C257.786 334.929 256.204 335.64 254.384 335.623C253.69 335.623 253.013 335.521 252.353 335.318C252.023 335.208 251.701 335.06 251.388 334.874C251.058 334.713 250.749 334.514 250.461 334.277C249.902 333.786 249.45 333.1 249.103 332.22C248.722 331.374 248.531 330.274 248.531 328.92C248.531 327.616 248.696 326.533 249.027 325.67C249.357 324.789 249.78 324.095 250.296 323.587C250.821 323.071 251.409 322.699 252.061 322.47C252.704 322.242 253.339 322.128 253.965 322.128C255.472 322.144 256.745 322.64 257.786 323.613C258.844 324.603 259.382 325.966 259.399 327.701V329.884ZM251.185 327.701H256.745C256.711 326.677 256.436 325.902 255.92 325.378C255.412 324.878 254.761 324.628 253.965 324.628C253.169 324.628 252.518 324.878 252.01 325.378C251.511 325.902 251.236 326.677 251.185 327.701ZM261.659 335.47V322.293H264.312V323.689H264.363C265.235 322.648 266.377 322.128 267.791 322.128C268.849 322.144 269.771 322.483 270.558 323.143L268.629 325.441C268.07 325.001 267.49 324.781 266.889 324.781C266.212 324.781 265.633 325.001 265.15 325.441C264.608 325.873 264.329 326.571 264.312 327.536V335.47H261.659ZM271.689 335.47V324.311H270.356V322.293H271.689V320.553C271.689 319.301 272.036 318.378 272.73 317.786C273.407 317.236 274.257 316.961 275.281 316.961H276.995V319.461H275.485C274.689 319.436 274.308 319.8 274.342 320.553V322.293H276.995V324.311H274.342V335.47H271.689ZM277.339 328.869C277.339 327.481 277.453 326.414 277.681 325.67C277.918 324.942 278.282 324.328 278.773 323.829C279.137 323.389 279.645 322.995 280.297 322.648C280.94 322.318 281.765 322.144 282.772 322.128C283.813 322.144 284.655 322.318 285.299 322.648C285.933 322.995 286.424 323.389 286.771 323.829C287.296 324.328 287.668 324.942 287.888 325.67C288.1 326.414 288.206 327.481 288.206 328.869C288.206 330.257 288.1 331.315 287.888 332.043C287.668 332.77 287.296 333.401 286.771 333.934C286.602 334.129 286.395 334.319 286.149 334.505C285.929 334.717 285.646 334.899 285.299 335.051C284.655 335.415 283.813 335.606 282.772 335.623C281.765 335.606 280.94 335.415 280.297 335.051C279.645 334.721 279.137 334.349 278.773 333.934C278.282 333.401 277.918 332.77 277.681 332.043C277.453 331.315 277.339 330.257 277.339 328.869ZM285.552 328.894C285.552 327.955 285.51 327.269 285.426 326.837C285.341 326.423 285.167 326.059 284.905 325.746C284.71 325.449 284.423 325.217 284.042 325.047C283.678 324.87 283.255 324.781 282.772 324.781C282.324 324.781 281.909 324.87 281.528 325.047C281.164 325.217 280.868 325.449 280.639 325.746C280.411 326.059 280.246 326.423 280.144 326.837C280.043 327.269 279.992 327.946 279.992 328.869C279.992 329.783 280.043 330.451 280.144 330.875C280.246 331.306 280.411 331.687 280.639 332.017C280.868 332.271 281.164 332.495 281.528 332.69C281.909 332.876 282.324 332.969 282.772 332.969C283.255 332.969 283.678 332.876 284.042 332.69C284.423 332.495 284.71 332.271 284.905 332.017C285.167 331.687 285.341 331.306 285.426 330.875C285.51 330.451 285.552 329.791 285.552 328.894ZM290.466 335.47V322.293H293.119V323.689H293.17C294.042 322.648 295.184 322.128 296.598 322.128C297.656 322.144 298.578 322.483 299.365 323.143L297.436 325.441C296.877 325.001 296.297 324.781 295.697 324.781C295.019 324.781 294.44 325.001 293.957 325.441C293.416 325.873 293.136 326.571 293.119 327.536V335.47H290.466ZM300.229 335.47V322.293H302.883V323.689H302.933C303.805 322.648 304.952 322.128 306.374 322.128C307.288 322.144 308.024 322.301 308.583 322.597C309.133 322.927 309.636 323.346 310.094 323.854C311.126 322.686 312.51 322.111 314.245 322.128C315.337 322.128 316.335 322.513 317.241 323.283C318.138 324.061 318.604 325.204 318.637 326.711V335.47H315.984V327.625C315.984 326.702 315.743 326 315.26 325.517C314.778 325.026 314.156 324.781 313.394 324.781C312.633 324.781 312.006 325.026 311.515 325.517C311.016 326 310.766 326.702 310.766 327.625V335.47H308.113V327.625C308.113 326.702 307.872 326 307.389 325.517C306.899 325.026 306.272 324.781 305.51 324.781C304.749 324.781 304.127 325.026 303.644 325.517C303.136 326 302.883 326.702 302.883 327.625V335.47H300.229ZM328.642 335.47V334.302H328.591C328.346 334.751 327.965 335.081 327.449 335.293C326.941 335.513 326.238 335.623 325.341 335.623C323.868 335.606 322.734 335.216 321.939 334.455C321.101 333.71 320.682 332.758 320.682 331.598C320.682 330.489 321.046 329.571 321.774 328.843C322.502 328.099 323.568 327.718 324.973 327.701H328.642V326.317C328.659 325.157 327.757 324.595 325.938 324.628C325.278 324.628 324.757 324.696 324.376 324.832C323.978 324.992 323.665 325.263 323.437 325.644L321.355 324.057C322.362 322.737 323.847 322.094 325.811 322.128C327.47 322.111 328.794 322.424 329.784 323.067C330.775 323.727 331.278 324.861 331.295 326.469V335.47H328.642ZM328.642 330.836V329.884H325.468C323.928 329.918 323.166 330.447 323.183 331.471C323.183 331.92 323.382 332.301 323.78 332.614C324.16 332.961 324.791 333.134 325.671 333.134C326.78 333.151 327.563 333.02 328.02 332.741C328.435 332.461 328.642 331.827 328.642 330.836ZM334.203 335.47V322.293H336.856V323.689H336.907C337.779 322.648 338.921 322.128 340.335 322.128C341.427 322.128 342.425 322.513 343.331 323.283C344.228 324.061 344.698 325.204 344.74 326.711V335.47H342.087V327.625C342.087 326.702 341.841 326 341.35 325.517C340.868 325.026 340.246 324.781 339.484 324.781C338.722 324.781 338.096 325.026 337.605 325.517C337.106 326 336.856 326.702 336.856 327.625V335.47H334.203ZM355.392 331.598L357.347 333.337C356.771 333.998 356.094 334.535 355.316 334.95C354.537 335.381 353.636 335.606 352.612 335.623C351.054 335.623 349.687 335.094 348.511 334.036C347.292 332.978 346.666 331.264 346.632 328.894C346.666 326.499 347.292 324.764 348.511 323.689C349.687 322.631 351.054 322.111 352.612 322.128C353.636 322.144 354.537 322.356 355.316 322.762C356.094 323.177 356.771 323.731 357.347 324.425L355.392 326.165C354.723 325.276 353.83 324.815 352.713 324.781C350.462 324.747 349.319 326.118 349.285 328.894C349.319 331.653 350.462 333.012 352.713 332.969C353.83 332.952 354.723 332.495 355.392 331.598ZM368.9 329.884H360.686C360.686 330.942 360.991 331.746 361.6 332.296C362.167 332.855 362.912 333.134 363.835 333.134C364.91 333.134 365.87 332.707 366.717 331.852L368.634 333.49C367.288 334.929 365.705 335.64 363.886 335.623C363.192 335.623 362.514 335.521 361.854 335.318C361.524 335.208 361.203 335.06 360.889 334.874C360.559 334.713 360.25 334.514 359.963 334.277C359.404 333.786 358.951 333.1 358.604 332.22C358.223 331.374 358.033 330.274 358.033 328.92C358.033 327.616 358.198 326.533 358.528 325.67C358.858 324.789 359.281 324.095 359.798 323.587C360.322 323.071 360.911 322.699 361.562 322.47C362.206 322.242 362.84 322.128 363.467 322.128C364.973 322.144 366.247 322.64 367.288 323.613C368.346 324.603 368.883 325.966 368.9 327.701V329.884ZM360.686 327.701H366.247C366.213 326.677 365.938 325.902 365.422 325.378C364.914 324.878 364.262 324.628 363.467 324.628C362.671 324.628 362.019 324.878 361.512 325.378C361.012 325.902 360.737 326.677 360.686 327.701Z" fill="#4B220A"/>
<path d="M260.572 243.736C260.701 243.735 260.83 243.735 260.963 243.735C261.389 243.736 261.814 243.736 262.239 243.737C262.535 243.738 262.83 243.738 263.126 243.738C263.903 243.738 264.679 243.74 265.456 243.741C266.249 243.742 267.042 243.743 267.835 243.743C269.39 243.745 270.945 243.747 272.5 243.749C272.408 244.343 272.242 244.874 272.022 245.433C271.965 245.578 271.965 245.578 271.908 245.725C271.782 246.051 271.654 246.377 271.527 246.703C271.388 247.061 271.249 247.419 271.11 247.776C271.008 248.039 270.906 248.301 270.804 248.564C270.397 249.61 269.995 250.658 269.593 251.706C269.488 251.981 269.383 252.255 269.278 252.529C268.86 253.621 268.86 253.621 268.442 254.714C267.783 256.437 267.121 258.16 266.426 259.87C266.378 259.989 266.329 260.109 266.279 260.233C264.739 263.991 261.933 266.884 258.151 268.539C256.243 269.331 254.259 269.743 252.192 269.735C252.001 269.735 252.001 269.735 251.807 269.735C251.391 269.735 250.974 269.734 250.557 269.733C250.267 269.733 249.978 269.733 249.688 269.733C248.926 269.732 248.165 269.731 247.404 269.73C246.627 269.729 245.849 269.728 245.072 269.728C243.548 269.726 242.024 269.724 240.5 269.722C240.711 269.094 240.927 268.47 241.161 267.851C241.217 267.704 241.272 267.557 241.33 267.406C241.39 267.247 241.45 267.088 241.511 266.929C241.574 266.76 241.638 266.592 241.702 266.423C241.909 265.876 242.116 265.33 242.324 264.784C242.395 264.596 242.467 264.407 242.538 264.219C242.83 263.451 243.121 262.684 243.413 261.916C243.787 260.931 244.16 259.946 244.532 258.961C244.791 258.273 245.051 257.585 245.312 256.898C245.418 256.619 245.523 256.339 245.628 256.059C247.527 251.007 249.977 247.221 255.09 244.831C256.81 244.085 258.7 243.729 260.572 243.736Z" fill="#FF9A34"/>
</svg>
